<svg xmlns="http://www.w3.org/2000/svg" viewBox="0 0 148.78 142.4"><path d="M82.37 4.95l18.16 36.82 40.63 5.92c7.29 1.06 10.21 10.04 4.92 15.18l-29.39 28.64 6.95 40.46c1.25 7.31-6.45 12.76-12.9 9.37l-36.35-19.1-36.35 19.1c-6.45 3.42-14.15-2.06-12.9-9.37l6.95-40.46L2.7 62.88C-2.58 57.73.34 48.75 7.62 47.7l40.63-5.92L66.41 4.95c3.28-6.64 12.71-6.56 15.96 0z" fill="#bfbfbf"/><path d="M74.39 122.25l-36.35 19.08c-6.51 3.42-14.16-2.11-12.9-9.37l6.95-40.46L2.7 62.85C-2.58 57.71.34 48.72 7.62 47.67l40.63-5.9L66.41 4.95C68.05 1.64 71.22 0 74.39 0v122.25z" fill="#fedc37"/></svg>