<?xml version="1.0" encoding="UTF-8"?>
<svg width="21px" height="21px" viewBox="0 0 21 21" version="1.1" xmlns="http://www.w3.org/2000/svg" xmlns:xlink="http://www.w3.org/1999/xlink">
    <!-- Generator: Sketch 61.2 (89653) - https://sketch.com -->
    <title>ic-busca</title>
    <desc>Created with Sketch.</desc>
    <g id="----" stroke="none" stroke-width="1" fill="none" fill-rule="evenodd">
        <g id="PF/PDP" transform="translate(-1010.000000, -64.000000)">
            <g id="header/header-full" transform="translate(-312.000000, -8.000000)">
                <g id="form/input/input-busca" transform="translate(586.760000, 58.000000)">
                    <g id="ic-busca">
                        <g transform="translate(735.617391, 14.117647)">
                            <g id="icon/search" transform="translate(0.434783, 0.000000)">
                                <g transform="translate(-0.000016, -0.000108)">
                                    <rect id="hotspot" fill="#D8D8D8" opacity="0" x="6.79804801e-06" y="4.51234847e-05" width="20" height="20"></rect>
                                    <path d="M13.8461606,8.46157717 C13.8461606,5.49283359 11.4302953,3.0769682 8.46153884,3.0769682 C5.49279526,3.0769682 3.07692987,5.49283359 3.07692987,8.46157717 C3.07692987,11.4303336 5.49279526,13.846199 8.46153884,13.846199 C11.4302953,13.846199 13.8461606,11.4303336 13.8461606,8.46157717 Z M20.0000068,18.4615836 C20.0000068,19.3029297 19.3028914,20.0000451 18.4615453,20.0000451 C18.0528914,20.0000451 17.6562568,19.8317759 17.3798145,19.5433144 L13.2572183,15.4327374 C11.8509683,16.4062951 10.168276,16.923122 8.46154526,16.923122 C3.78606449,16.923122 6.79804801e-06,13.1370644 6.79804801e-06,8.46158359 C6.79804801e-06,3.78610282 3.78606449,4.51234847e-05 8.46154526,4.51234847e-05 C13.137026,4.51234847e-05 16.9230837,3.78610282 16.9230837,8.46158359 C16.9230837,10.1683144 16.4062568,11.8510067 15.4326991,13.2572567 L19.5552953,17.3798528 C19.8317376,17.6562951 20.0000068,18.0529297 20.0000068,18.4615836 Z" id="search" fill="#BC0406"></path>
                                </g>
                            </g>
                        </g>
                    </g>
                </g>
            </g>
        </g>
    </g>
</svg>