<?xml version="1.0" encoding="UTF-8"?>
<svg width="42px" height="41px" viewBox="0 0 42 41" version="1.1" xmlns="http://www.w3.org/2000/svg" xmlns:xlink="http://www.w3.org/1999/xlink">
    <!-- Generator: Sketch 61.2 (89653) - https://sketch.com -->
    <title></title>
    <desc>Created with Sketch.</desc>
    <g id="----" stroke="none" stroke-width="1" fill="none" fill-rule="evenodd">
        <g id="PF/PDP" transform="translate(-1348.000000, -54.000000)" fill="#FFFFFF">
            <g id="header/header-full" transform="translate(-312.000000, -8.000000)">
                <path d="M1669.15663,96.1566265 C1669.99197,95.3855383 1670.95582,95 1672.04819,95 C1673.14057,95 1674.07229,95.3855383 1674.84337,96.1566265 C1675.61446,96.9277147 1676,97.8594323 1676,98.9518072 C1676,100.044182 1675.61446,100.991964 1674.84337,101.795181 C1674.07229,102.598398 1673.14057,103 1672.04819,103 C1670.95582,103 1670.00804,102.598398 1669.20482,101.795181 C1668.4016,100.991964 1668,100.044182 1668,98.9518072 C1668,97.8594323 1668.38554,96.9277147 1669.15663,96.1566265 Z M1660,62 L1666.86538,62 L1668.78365,66.1176471 L1699.87981,66.1176471 C1700.41827,66.1176471 1700.90625,66.3137235 1701.34375,66.7058824 C1701.78125,67.0980412 1702,67.5555529 1702,68.0784314 C1702,68.4705902 1701.93269,68.7973843 1701.79808,69.0588235 L1694.22596,81.7058824 C1693.48557,83.143798 1692.27405,83.8627451 1690.59135,83.8627451 L1674.94231,83.8627451 L1672.82212,87 L1672.69288,87.3294124 C1672.64442,87.4627455 1672.62019,87.5490194 1672.62019,87.5882353 C1672.62019,87.9150343 1672.78846,88.0784314 1673.125,88.0784314 L1697.15385,88.0784314 L1697.15385,92 L1672.62019,92 C1671.27403,92 1670.18029,91.6405265 1669.33894,90.9215686 C1668.49759,90.2026108 1668.07692,89.189549 1668.07692,87.8823529 C1668.07692,87.0980392 1668.24519,86.4444471 1668.58173,85.9215686 L1671.71154,80.9215686 L1664.24038,66.1176471 L1660,66.1176471 L1660,62 Z M1691.15663,96.1566265 C1691.92771,95.3855383 1692.85943,95 1693.95181,95 C1695.04418,95 1695.99196,95.3855383 1696.79518,96.1566265 C1697.5984,96.9277147 1698,97.8594323 1698,98.9518072 C1698,100.044182 1697.5984,100.991964 1696.79518,101.795181 C1695.99196,102.598398 1695.04418,103 1693.95181,103 C1692.85943,103 1691.92771,102.598398 1691.15663,101.795181 C1690.38554,100.991964 1690,100.044182 1690,98.9518072 C1690,97.8594323 1690.38554,96.9277147 1691.15663,96.1566265 Z" id=""></path>
            </g>
        </g>
    </g>
</svg>