<svg xmlns="http://www.w3.org/2000/svg" viewBox="0 0 178 34"><title>Logo Pontofrio</title><g fill-rule="nonzero" fill="none"><g fill="#FFF"><path d="M6.438 27.226v4.94c0 .514-.192.8-.702.867l-4.526.707c-.667.096-.828-.16-.828-.641V11.697c0-2.117.828-2.6 2.614-3.046a32.53 32.53 0 018.188-.964c6.915.13 8.732 4.428 8.732 10.171 0 5.325-1.814 10.074-8.604 9.978a23.527 23.527 0 01-4.876-.612m0-15.334V23.6c1.016.233 2.054.362 3.096.385 2.613.032 4.205-.898 4.205-6.352 0-5.615-1.753-6.128-3.918-6.161-1.138.017-2.27.157-3.379.418M22.882 17.733c0-5.902 2.136-10.105 10.039-10.105 8.22 0 10.037 4.203 10.037 10.105 0 5.903-1.815 10.107-10.037 10.107-8.223 0-10.039-4.204-10.039-10.107m13.895 0c0-4.587-.796-6.288-3.791-6.288-2.9 0-3.92 1.7-3.92 6.288 0 4.59.861 6.289 3.856 6.289 2.9 0 3.856-1.7 3.856-6.289M65.104 26.71c0 .418-.224.642-.669.642h-4.717a.587.587 0 01-.488-.158.596.596 0 01-.181-.483V15.135c0-2.022-.829-3.592-3.122-3.592a17.562 17.562 0 00-3.569.353v14.822c0 .417-.224.641-.67.641h-4.716a.587.587 0 01-.489-.157.596.596 0 01-.18-.484V11.283c0-1.507.669-2.247 3.242-2.82 2.35-.48 4.74-.737 7.138-.77 5.258 0 8.413 2.344 8.413 6.93v12.095l.008-.007zM74.916 8.232h4.652c.414 0 .606.193.606.641v2.76c0 .446-.192.642-.606.642h-4.652v9.336c0 1.443.508 2.215 2.516 2.215.791-.006 1.58-.082 2.359-.226.442-.064.636.193.636.481v2.343c0 .483-.126.77-.605.898a12.67 12.67 0 01-3.919.514c-4.717 0-7.043-2.182-7.043-6.545V4.669c0-.514.192-.802.702-.867l4.525-.707c.67-.096.829.16.829.643v4.494zM81.862 17.733c0-5.902 2.134-10.105 10.038-10.105 8.221 0 10.037 4.203 10.037 10.105 0 5.903-1.814 10.107-10.037 10.107-8.222 0-10.038-4.204-10.038-10.107m13.894 0c0-4.587-.796-6.288-3.791-6.288-2.9 0-3.92 1.7-3.92 6.288 0 4.59.861 6.289 3.857 6.289 2.9 0 3.856-1.7 3.856-6.289M116.466 8.232c.414 0 .606.193.606.641v2.76c0 .446-.192.642-.606.642h-5.13v14.437a.596.596 0 01-.18.483.587.587 0 01-.488.159h-4.717a.587.587 0 01-.487-.159.596.596 0 01-.18-.483V6.95c0-4.364 2.358-6.545 7.265-6.545a13.84 13.84 0 014.173.512c.478.16.606.386.606.963v2.18c0 .297-.192.545-.637.481a15.1 15.1 0 00-2.613-.226c-2.2 0-2.74.77-2.74 2.215v1.7h5.128v.002zM119.175 11.312c0-1.669 1.688-2.246 3.505-2.6a46.634 46.634 0 016.564-.741h.702c.541 0 .737.193.737.706v2.728c0 .385-.032.769-.702.769a33.168 33.168 0 00-4.748.353v14.18c0 .418-.224.642-.669.642h-4.717a.587.587 0 01-.488-.158.596.596 0 01-.181-.483V11.312h-.003zM133.385 2.137c0-.512.192-.802.702-.867l4.493-.706c.668-.097.86.16.86.64v3.754c.017.18-.05.36-.18.484a.587.587 0 01-.489.159h-4.717a.587.587 0 01-.489-.159.596.596 0 01-.18-.484V2.137zm0 6.48c0-.416.224-.64.67-.64h4.716a.587.587 0 01.489.158c.13.124.197.302.18.483v18.094c0 .417-.222.642-.669.642h-4.717a.587.587 0 01-.488-.158.596.596 0 01-.18-.484V8.618zM142.72 17.733c0-5.902 2.135-10.105 10.037-10.105 8.221 0 10.039 4.203 10.039 10.105 0 5.903-1.815 10.107-10.039 10.107-8.223 0-10.037-4.204-10.037-10.107m13.895 0c0-4.587-.796-6.288-3.791-6.288-2.9 0-3.92 1.7-3.92 6.288 0 4.59.861 6.289 3.856 6.289 2.9 0 3.857-1.7 3.857-6.289"/></g><path d="M175.018.853s.054.077-.335.162a4.33 4.33 0 00-2.127.769 2.505 2.505 0 00-.737 2.466 35.483 35.483 0 002.322 4.761 16.625 16.625 0 012.068 5.812 27.09 27.09 0 01.076 7.468 43.405 43.405 0 01-.576 4.877c-.37 2.25-.587 3.626-.778 4.817-.192 1.192-.598 1.476-2.48 1.574-1.883.098-5.716.225-6.928-.376 1.874-1.055 3.155-2.523 3.155-3.38 0-.858-.87-21.91-.544-23.653.326-1.744 1.465-5.165 2.81-5.165 1.346 0 3.144-.052 3.144-.052l.93-.08z" fill="#FFF"/><path d="M174.321 8.211c-.144-.264-.288-.516-.404-.742-.128-.246-.269-.498-.417-.766a18.347 18.347 0 01-1.153-2.193 2.406 2.406 0 01.237-2.486c.101-.148.562-.8 2.205-1.039.153-.036.228-.076.228-.135 0 0 .025-.062-.705-.009-.649.09-1.309.057-1.947-.096-1.967-.493-2.239-.417-2.987-.021a3.76 3.76 0 00-1.57 2.507 45.25 45.25 0 01-1.342 4.918 24.836 24.836 0 00-1.276 5.055 22.616 22.616 0 00-.114 4.78c.228 2.64.596 5.267 1.101 7.866.548 2.76.865 4.156.528 5.425a3.99 3.99 0 01-1.12 1.78c-.08.08-.144.149 0 .211 1.435.482 2.934.725 4.443.72.628 0 1.288.025 1.961-.034 2.319-.187 2.975-.32 3.315-1.633.193-.98 1.153-6.724 1.683-12.536.4-4.056-.54-8.133-2.666-11.572zm1.96 14.08a43.405 43.405 0 01-.577 4.877c-.37 2.25-.586 3.626-.778 4.817-.191 1.192-.598 1.476-2.48 1.574a35.182 35.182 0 01-5.727-.297c-.983-.149-.85-.079.048-.558a6.23 6.23 0 002.961-3.414c.653-2.617.676-5.359.068-7.987a24.274 24.274 0 012.63 4.135c.855 1.803.932 1.473 1.085-.573a14.916 14.916 0 00-1.382-7.062c-2.111-4.817-3.89-8.19-3.459-11.54.093-2.053 1.304-3.876 3.13-4.708.402-.142.813-.263 1.228-.362.144-.034.2-.008.067.067-.06.034-.144.074-.225.117a1.91 1.91 0 00-.865.984 2.886 2.886 0 00-.199 1.89 35.483 35.483 0 002.322 4.76 16.627 16.627 0 012.068 5.812c.371 2.473.4 4.987.085 7.468z" fill="#211915"/></g></svg>