<svg xmlns="http://www.w3.org/2000/svg" viewBox="0 0 48 45"><g fill="none" fill-rule="evenodd"><path d="M38.734 35.468c2.583 0 4.678 2.111 4.678 4.716a4.731 4.731 0 01-1.369 3.337 4.653 4.653 0 01-3.31 1.38c-2.583 0-4.677-2.112-4.677-4.717 0-2.605 2.094-4.716 4.678-4.716zm-23.255 1.38a4.65 4.65 0 015.099-1.023 4.717 4.717 0 012.887 4.36 4.731 4.731 0 01-1.367 3.334A4.653 4.653 0 0118.79 44.9l-.226-.005a4.68 4.68 0 01-4.098-2.905 4.746 4.746 0 011.012-5.141zM1.142.002l.129.001h6.695c1.34.014 2.507.93 2.848 2.238l1.343 7.658h34.588c.371.001.72.176.944.474h.015c.235.284.322.663.236 1.022l-3.6 17.55a4.708 4.708 0 01-4.572 3.583H18.159a4.707 4.707 0 01-4.572-3.63L8.556 2.813a.576.576 0 00-.59-.44H1.093a1.2 1.2 0 01-1.09-1.27C.06.45.622-.038 1.27.002z" fill="#FFF"/><path d="M46.992 16.015l.948-4.621a1.174 1.174 0 00-.236-1.022h-.015a1.186 1.186 0 00-.944-.474H12.157l-2.206.147L11 16l35.992.015z" fill="#E81C24"/></g></svg>