<svg xmlns="http://www.w3.org/2000/svg" viewBox="0 0 26 34"><g fill-rule="nonzero" fill="none"><ellipse fill="#FFF" cx="12.998" cy="10.451" rx="9.169" ry="9.395"/><path d="M12.998 20.777c7.179 0 12.998 5.92 12.998 13.223H0l.004-.312c.163-7.159 5.918-12.911 12.994-12.911z" fill="#FFF"/><path d="M25.925.004a10.146 10.146 0 01-1.065 4.242 5 5 0 01-3.758 2.58l-17.307.068V5.065c0-.021.008-.046.013-.084a6.958 6.958 0 011.1-3.119A4.543 4.543 0 018.284 0h.129c5.841.007 11.679.008 17.512.004z" fill="#E81C24"/></g></svg>