<svg xmlns="http://www.w3.org/2000/svg" viewBox="0 0 48 48"><path d="M33.23 20.308c0-7.125-5.797-12.923-12.922-12.923-7.125 0-12.923 5.798-12.923 12.923S13.183 33.23 20.308 33.23 33.23 27.433 33.23 20.308zm14.77 24C48 46.327 46.327 48 44.308 48a3.62 3.62 0 01-2.596-1.096l-9.895-9.866a20.26 20.26 0 01-11.51 3.577C9.088 40.615 0 31.53 0 20.308 0 9.087 9.087 0 20.308 0c11.22 0 20.307 9.087 20.307 20.308a20.26 20.26 0 01-3.577 11.51l9.895 9.894A3.714 3.714 0 0148 44.308z" fill="#0061b0" fill-rule="evenodd"/></svg>