<svg viewBox="0 0 103 28" xmlns="http://www.w3.org/2000/svg"><title>Logo Casas Bahia</title><g fill="none" fill-rule="evenodd"><path d="M1.967 27.582A1.97 1.97 0 010 25.615V1.967A1.968 1.968 0 011.967 0h98.914a1.97 1.97 0 011.967 1.967v23.659a1.97 1.97 0 01-1.967 1.967H1.967v-.011z" fill="#FFF" fill-rule="nonzero"/><path d="M100.881.633H1.967A1.337 1.337 0 00.633 1.967v23.659a1.337 1.337 0 001.334 1.333h98.914a1.337 1.337 0 001.334-1.333V1.966A1.334 1.334 0 00100.88.634z" fill="#FFF" fill-rule="nonzero"/><path d="M102.215 25.615a1.337 1.337 0 01-1.334 1.333H1.967a1.337 1.337 0 01-1.334-1.333V1.967A1.337 1.337 0 011.967.633h98.914a1.337 1.337 0 011.334 1.334v23.648z" fill="#E81C24"/><path d="M102.215 12.824V7.946H.633v17.68a1.337 1.337 0 001.334 1.334h98.914a1.337 1.337 0 001.334-1.334V12.824z" fill="#0061B0"/><path d="M15.091 1.778H13.78L12.224 7.2h1l.3-1.11h1.567l.3 1.11h1.222l-1.522-5.422zm-1.289 3.323l.511-1.911.523 1.91h-1.034zM20.603 2.967a1.733 1.733 0 00-1.834-1.278c-.447-.02-.884.14-1.211.445-.345.33-.535.79-.522 1.266 0 1.19.844 1.478 1.711 1.668.3.066.845.155.845.61 0 .456-.434.59-.756.59a.93.93 0 01-1.011-.767l-1.045.267a1.846 1.846 0 001.956 1.5c.509.027 1.01-.13 1.411-.445.386-.344.604-.838.6-1.355a1.568 1.568 0 00-.633-1.278 3.4 3.4 0 00-1.267-.456c-.278-.055-.7-.155-.7-.544 0-.422.367-.511.678-.511a.78.78 0 01.833.644l.945-.356zM23.804 1.778h-1.312L20.936 7.2h1l.3-1.11h1.568l.3 1.11h1.222l-1.522-5.422zm-1.29 3.323l.512-1.911.51 1.91h-1.021zM29.315 2.967A1.74 1.74 0 0027.47 1.69a1.655 1.655 0 00-1.745 1.712c0 1.189.845 1.478 1.712 1.667.3.067.844.156.844.611 0 .456-.433.589-.755.589a.93.93 0 01-1.011-.767l-1.045.267a1.846 1.846 0 001.956 1.5c.508.028 1.01-.13 1.41-.444.387-.345.605-.839.6-1.356a1.568 1.568 0 00-.632-1.278 3.472 3.472 0 00-1.267-.455c-.278-.056-.7-.156-.7-.545 0-.422.367-.51.667-.51a.78.78 0 01.833.644l.978-.357zM11.968 3.79c-.122-1.3-.744-2.1-1.967-2.1-1.455 0-2.177 1.288-2.177 2.789 0 1.477.7 2.789 2.144 2.789 1.123 0 1.879-.733 2-1.978l-1.11-.067c-.067.522-.312 1.022-.845 1.022-.856 0-.933-.955-.933-1.7 0-.656.077-1.822.877-1.822.623 0 .811.566.811 1.166l1.2-.1zM47.43 7.957V22.57h5.11v-2.924h9.512v2.922h5.123V7.957h-5.132v8.711h-9.49V7.957zM69.366 7.946h5.123v14.602h-5.123zM82.812 18.025l1.7-3.834 1.8 3.834h-3.5zM75.2 22.548l6.523-14.602h5.579l6.956 14.602h-5.534l-.989-1.678H81.49l-.856 1.678H75.2zM35.316 18.025l1.7-3.834 1.8 3.834h-3.5zm-7.612 4.523l6.523-14.602h5.579l6.956 14.602h-5.534l-.989-1.678h-6.245l-.856 1.678h-5.434zM20.135 16.325c1.477 0 2.789.033 2.789 1.689 0 1.355-1.378 1.656-2.467 1.656h-7.333v-3.345h7.01zm.655-5.289c.545 0 1.734.022 1.734 1.1 0 .811-.623 1.222-2.156 1.222h-7.232v-2.323l7.654.001zm2.222 11.502c3.2.01 5.057-1.1 5.057-4.4 0-1.978-1.189-3.511-2.778-3.59 1.4-.588 2.256-1.433 2.3-2.933.056-2.145-1.333-3.667-3.634-3.667h-16v14.591l15.055-.001z" fill="#FFF"/></g></svg>
