<svg xmlns="http://www.w3.org/2000/svg" viewBox="0 0 48 48"><path d="M11.384 39.776c.923-.866 1.988-1.298 3.196-1.298 1.207 0 2.237.432 3.089 1.298.852.865 1.278 1.91 1.278 3.137 0 1.226-.426 2.29-1.278 3.19-.852.902-1.882 1.353-3.09 1.353-1.207 0-2.254-.45-3.142-1.352-.888-.902-1.332-1.965-1.332-3.191 0-1.226.426-2.272 1.279-3.137zM0 0h7.846l2.192 4.753h35.539c.615 0 1.173.226 1.673.68.5.452.75.98.75 1.584 0 .452-.077.83-.23 1.131l-8.655 14.6c-.846 1.659-2.23 2.489-4.153 2.489H17.077l-2.423 3.621-.148.38a1.217 1.217 0 00-.083.3c0 .377.192.565.577.565h27.462v4.527H14.423c-1.538 0-2.788-.415-3.75-1.245-.961-.83-1.442-2-1.442-3.508 0-.906.192-1.66.577-2.264l3.577-5.771L4.846 4.753H0V0zm35.384 39.776c.852-.866 1.882-1.298 3.09-1.298 1.206 0 2.254.432 3.142 1.298.887.865 1.331 1.91 1.331 3.137 0 1.226-.444 2.29-1.331 3.19-.888.902-1.936 1.353-3.143 1.353-1.207 0-2.237-.45-3.09-1.352-.852-.902-1.278-1.965-1.278-3.191 0-1.226.426-2.272 1.279-3.137z"/></svg>