<?xml version="1.0" encoding="UTF-8"?>
<svg width="48px" height="48px" viewBox="0 0 48 48" version="1.1" xmlns="http://www.w3.org/2000/svg" xmlns:xlink="http://www.w3.org/1999/xlink">
    <!-- Generator: Sketch 61.2 (89653) - https://sketch.com -->
    <title>icon/search</title>
    <desc>Created with Sketch.</desc>
    <g id="icon/search" stroke="none" stroke-width="1" fill="none" fill-rule="evenodd">
        <g transform="translate(-0.000016, -0.000108)">
            <rect id="hotspot" fill="#D8D8D8" opacity="0" x="1.63153152e-05" y="0.000108296363" width="48" height="48"></rect>
            <path d="M33.2307855,20.3077852 C33.2307855,13.1828006 27.4327086,7.38472368 20.3076932,7.38472368 C13.1827086,7.38472368 7.3846317,13.1828006 7.3846317,20.3077852 C7.3846317,27.4328006 13.1827086,33.2308775 20.3076932,33.2308775 C27.4327086,33.2308775 33.2307855,27.4328006 33.2307855,20.3077852 Z M48.0000163,44.3078006 C48.0000163,46.3270314 46.3269394,48.0001083 44.3077086,48.0001083 C43.3269394,48.0001083 42.3750163,47.5962621 41.7115548,46.9039545 L31.817324,37.0385698 C28.442324,39.3751083 24.4038625,40.6154929 20.3077086,40.6154929 C9.08655478,40.6154929 1.63153152e-05,31.5289545 1.63153152e-05,20.3078006 C1.63153152e-05,9.08664676 9.08655478,0.000108296363 20.3077086,0.000108296363 C31.5288625,0.000108296363 40.6154009,9.08664676 40.6154009,20.3078006 C40.6154009,24.4039545 39.3750163,28.442416 37.0384779,31.817416 L46.9327086,41.7116468 C47.5961702,42.3751083 48.0000163,43.3270314 48.0000163,44.3078006 Z" id="search" fill="#000000"></path>
        </g>
    </g>
</svg>