<svg xmlns="http://www.w3.org/2000/svg" xmlns:xlink="http://www.w3.org/1999/xlink" viewBox="0 0 206 33"><title>Logo Extra</title><defs><path id="a" d="M.3.896h55v27H.3z"/></defs><g fill="none" fill-rule="evenodd"><g transform="translate(42.7)"><mask id="b" fill="#fff"><use xlink:href="#a"/></mask><path d="M12.223 10.143s2.002.056 2.034 1.762l.043 1.646s.031 1.285-.97 1.449H7.337L7.3 11.652s.218-2.228 4.923-1.51zM33.8 15.738l7.768-9.448h-5.754c-1.386.243-4.935 5.281-4.935 5.281-2.759-5.123-4.225-5.253-4.225-5.253h-6.77l6.918 10.125-4.107 4.763s-1.448 2.484-6.438 3.262H9.518s-2.216-.527-2.461-2.667v-2.707l10.2-.126c3.09-.567 3.223-4.426 3.223-4.426.694-8.637-8.177-8.515-8.177-8.515-8.926-.37-10.545 3.222-10.545 3.222S-.826 12.276.886 22.746c0 0 1.43 5.28 6.795 5.187h10.452c6.149.892 11.66-7.47 11.66-7.47 1.339 2.1 2.642 4.2 2.642 4.2 1.585 3.364 3.134 3.174 3.134 3.174H42.3l-8.5-12.1zM48.972.896S43.253 2.244 42.3 5.271v15.606s.215 6.398 6.607 6.848c0 0 5.514.708 6.205-.756v-3.185s-3.224.628-4.938-.275c0 0-1.122-.584-1.122-1.841V10.504h5.43s.546-.194.818-1.018V6.567h-6.299L48.972.896" fill="#FFFFFE" mask="url(#b)"/></g><path d="M99 27.24s.53.605.93.656h4.158s.827-.05 1.097-1.022V12.726s-.127-1.467 2.06-2.009H111V8.045s-.224-1.077-2.352-1.034c0 0-9.2-1.505-9.602 6.37L99 27.241M124.925 23.996h-4.691s-2.852.17-3.14-1.681c0 0-.197-2.692-.021-3.478.31-1.534 2.074-1.693 2.074-1.693 1.948-.244 5.853-.104 5.853-.104l-.075 6.956zM123.303 6l-5.562.086c-3.714-.127-3.919 1.15-3.919 1.15l.008 2.851s5.965-.38 8.517-.135c0 0 2.655.503 2.418 3.621l-7.6.147s-4.643-.098-5.84 3.732c0 0-.94 4.611.376 7.348 0 0 .86 2.648 5.866 3.159L131 28V14.453s.269-8.314-7.696-8.453zM147.084 14.28l.916-2.042s-.954-1.744-3.945-1.256c0 0-4.49.41-4.02 7.721 0 0 .262 6.263 5.93 5.033 0 0 1.48-.363 1.765-1.044l-.684-2.107s-1.05 1.058-2.346.915c0 0-1.501-.302-1.734-2.058 0 0-.244-4.467.274-5.106 0 0 .991-2.344 3.844-.056M156.791 19.568c-1.45 3.012-3.428.337-3.428.337-.486-3.127-.344-4.338-.344-4.338.197-2.616 1.744-2.51 1.744-2.51 1.978-.456 2.137 1.979 2.137 1.979.277 1.805-.109 4.532-.109 4.532zm.021-8.246s-1.734-.514-2.676-.243c0 0-5.167.282-3.95 7.95 0 0 .612 4.45 5.5 3.928 0 0 3.163.052 4.097-4.124 0 0 1.412-5.366-2.97-7.511zM162 11.808s.926.99.563 11.03h2.897v-8.605s2.334-2.231 2.94.185v8.38h2.758v-8.335s2.115-2.371 2.985-.283v8.716H177v-9.661s-1.245-4.747-6.021-.715c0 0-1.792-3.498-5.886-.054l-.559-1.553-2.534.895M192.9 18.029c.053 1.336-.825 2.221-.825 2.221-2.056 1.477-3.075.317-3.075.317v-5.973c2.53-1.5 3.496.313 3.496.313.804 1.336.405 3.122.405 3.122zm-1.018-6.468s-1.809.312-2.412.958L189.43 7l-2.88.586V20.76l-.55 1.706 2.69.445.603-.752s2.726 2.363 5.46-.833c0 0 1.343-1.49 1.199-3.854 0 0 .796-5.694-4.07-5.91zM198.613 13.875v9.021h3.151v-8.071s1.121-1.821 3.204-1.095L206 11.2s-2.758-1.298-4.545 1.472l-.905-1.767-2.55.859s.37 1 .613 2.111M182 18.898s-1.749-.127-2 1.942c0 0 0 1.883 1.915 2.05 0 0 1.919.22 2.085-1.98 0 0 0-1.93-2-2.012M135.45 18.896s-2.403-.045-2.45 2.128c0 0 .273 2.071 2.487 1.856 0 0 2.397 0 2.496-1.856 0 0 .386-1.996-2.534-2.128M21.893 21.485C30.268 18.196 39.207 12.993 44 4.898L5.064 4.896C2.304 4.896 0 7.094 0 9.88v23.016c.747-1.615 2.217-3.025 3.713-4.082 1.59-1.137 4.681-2.492 7.629-3.588 3.87-1.443 8.04-2.756 10.551-3.74" fill="#FFFFFE"/><path d="M2 9.947c0-1.413 1.092-3.051 3.126-3.051H31c-2.4 2.178-7.258 4.666-10.864 6.202-4.34 1.858-7.316 2.568-12.51 4.558-2.49.955-5.124 2.295-5.626 4.24V9.947" fill="#D6232E"/><path d="M33.665 6.896H40c-4.229 5.515-10.683 9.456-17.344 12.277-7.12 3.014-14.267 4.654-18.251 7.24-1.309.852-1.979 1.575-2.405 2.483V24.61c0-1.314 1.805-2.892 3.405-3.686C9.28 19 14.02 17.849 20.755 14.942c4.267-1.844 9.705-4.763 12.91-8.046" fill="#0070AC"/></g></svg>